<?xml version="1.0" encoding="UTF-8"?>
<svg width="95px" height="96px" viewBox="0 0 95 96" version="1.1" xmlns="http://www.w3.org/2000/svg" xmlns:xlink="http://www.w3.org/1999/xlink">
    <title>Icon Copy</title>
    <g id="Page-1" stroke="none" stroke-width="1" fill="none" fill-rule="evenodd">
        <g id="Icon-Copy" transform="translate(0, 0.7733)">
            <rect id="Rectangle" fill="#6366F1" x="0" y="0" width="95" height="95" rx="12"></rect>
            <g id="Group" transform="translate(28.8791, 24.5511)" fill="#FFFFFF">
                <path d="M28.1636562,0.508464975 C29.1528437,1.22333997 29.5185937,2.52008997 29.0697187,3.65058997 L22.5527187,19.9514025 L34.5809062,19.9514025 C35.7030937,19.9514025 36.7005937,20.6496525 37.0829687,21.70534 C37.4653437,22.7610275 37.1411562,23.9414025 36.2849687,24.6562775 L12.3449687,44.6062775 C11.4056562,45.3876525 10.0673437,45.429215 9.07815617,44.71434 C8.08896867,43.999465 7.72321867,42.702715 8.17209367,41.572215 L14.6890937,25.2714025 L2.66090617,25.2714025 C1.53871867,25.2714025 0.541218666,24.5731525 0.158843666,23.517465 C-0.223531334,22.4617775 0.100656166,21.2814025 0.956843666,20.5665275 L24.8968437,0.616527475 C25.8361562,-0.164847525 27.1744687,-0.206410025 28.1636562,0.508464975 Z" id="Path"></path>
            </g>
        </g>
    </g>
</svg>